<?xml version="1.0" encoding="UTF-8"?>
<svg xmlns="http://www.w3.org/2000/svg" viewBox="0 0 32 32" width="32" height="32">
  <!-- Background -->
  <circle cx="16" cy="16" r="15" fill="#1e3a8a" stroke="#fbbf24" stroke-width="1"/>
  
  <!-- Brandenburg Gate Simplified -->
  <!-- Base -->
  <rect x="6" y="24" width="20" height="2" fill="#fbbf24"/>
  
  <!-- Columns -->
  <rect x="8" y="16" width="2" height="8" fill="#fbbf24"/>
  <rect x="11" y="16" width="2" height="8" fill="#fbbf24"/>
  <rect x="14" y="16" width="2" height="8" fill="#fbbf24"/>
  <rect x="18" y="16" width="2" height="8" fill="#fbbf24"/>
  <rect x="21" y="16" width="2" height="8" fill="#fbbf24"/>
  
  <!-- Top -->
  <rect x="7" y="14" width="18" height="2" fill="#fbbf24"/>
  
  <!-- Central arch -->
  <path d="M 14 24 A 2 2 0 0 1 18 24 Z" fill="#1e3a8a"/>
  
  <!-- Crown -->
  <rect x="14" y="12" width="4" height="2" fill="#fbbf24"/>
  
  <!-- House icon in center -->
  <g transform="translate(16, 20) scale(0.6)">
    <rect x="-3" y="-1" width="6" height="4" fill="#fbbf24"/>
    <polygon points="-4,-3 0,-5 4,-3" fill="#1e3a8a"/>
    <rect x="-1" y="1" width="2" height="2" fill="#1e3a8a"/>
  </g>
</svg>
